<mxfile host="app.diagrams.net" modified="2023-05-17T03:33:00.023Z" agent="Mozilla/5.0 (Macintosh; Intel Mac OS X 10.15; rv:109.0) Gecko/20100101 Firefox/113.0" version="21.3.2" etag="GB1hvmyo2e-UnkvCqt7T" type="github">
  <diagram name="第 1 页" id="xoibS2SJCxxQ6S7KfYmW">
    <mxGraphModel>
      <root>
        <mxCell id="0" />
        <mxCell id="1" parent="0" />
      </root>
    </mxGraphModel>
  </diagram>
</mxfile>
